<svg width="900" height="260" viewBox="0 0 900 260" xmlns="http://www.w3.org/2000/svg" font-family="Consolas, monospace">
<rect x="0" y="0" width="900" height="260" rx="8" fill="#050A0F" stroke="#00BFFF" stroke-opacity="0.4"/>
<text x="50" y="20" fill="#C9D1D9" font-size="13" letter-spacing="1.5">GITHUB ACTIVITY // LAST 30 DAYS</text>
<line x1="50" y1="172.5" x2="880" y2="172.5" stroke="#123038" stroke-width="1" stroke-dasharray="2,3"/>
<text x="44" y="176.5" fill="#C9D1D9" font-size="9" text-anchor="end" opacity="0.7">2</text>
<line x1="50" y1="125.0" x2="880" y2="125.0" stroke="#123038" stroke-width="1" stroke-dasharray="2,3"/>
<text x="44" y="129.0" fill="#C9D1D9" font-size="9" text-anchor="end" opacity="0.7">4</text>
<line x1="50" y1="77.5" x2="880" y2="77.5" stroke="#123038" stroke-width="1" stroke-dasharray="2,3"/>
<text x="44" y="81.5" fill="#C9D1D9" font-size="9" text-anchor="end" opacity="0.7">6</text>
<line x1="50" y1="30.0" x2="880" y2="30.0" stroke="#123038" stroke-width="1" stroke-dasharray="2,3"/>
<text x="44" y="34.0" fill="#C9D1D9" font-size="9" text-anchor="end" opacity="0.7">8</text>
<line x1="63.8" y1="220.0" x2="63.8" y2="220.0" stroke="#00BFFF" stroke-width="1.4" opacity="0.9"/>
<rect x="56.9" y="220.0" width="13.8" height="1.5" fill="#00BFFF" opacity="0.9" rx="1"/>
<line x1="91.5" y1="220.0" x2="91.5" y2="220.0" stroke="#00BFFF" stroke-width="1.4" opacity="0.9"/>
<rect x="84.6" y="220.0" width="13.8" height="1.5" fill="#00BFFF" opacity="0.9" rx="1"/>
<line x1="119.2" y1="220.0" x2="119.2" y2="220.0" stroke="#00BFFF" stroke-width="1.4" opacity="0.9"/>
<rect x="112.2" y="220.0" width="13.8" height="1.5" fill="#00BFFF" opacity="0.9" rx="1"/>
<line x1="146.8" y1="220.0" x2="146.8" y2="220.0" stroke="#00BFFF" stroke-width="1.4" opacity="0.9"/>
<rect x="139.9" y="220.0" width="13.8" height="1.5" fill="#00BFFF" opacity="0.9" rx="1"/>
<line x1="174.5" y1="220.0" x2="174.5" y2="220.0" stroke="#00BFFF" stroke-width="1.4" opacity="0.9"/>
<rect x="167.6" y="220.0" width="13.8" height="1.5" fill="#00BFFF" opacity="0.9" rx="1"/>
<line x1="202.2" y1="220.0" x2="202.2" y2="220.0" stroke="#00BFFF" stroke-width="1.4" opacity="0.9"/>
<rect x="195.3" y="220.0" width="13.8" height="1.5" fill="#00BFFF" opacity="0.9" rx="1"/>
<line x1="229.8" y1="220.0" x2="229.8" y2="220.0" stroke="#00BFFF" stroke-width="1.4" opacity="0.9"/>
<rect x="222.9" y="220.0" width="13.8" height="1.5" fill="#00BFFF" opacity="0.9" rx="1"/>
<line x1="257.5" y1="220.0" x2="257.5" y2="220.0" stroke="#00BFFF" stroke-width="1.4" opacity="0.9"/>
<rect x="250.6" y="220.0" width="13.8" height="1.5" fill="#00BFFF" opacity="0.9" rx="1"/>
<line x1="285.2" y1="220.0" x2="285.2" y2="220.0" stroke="#00BFFF" stroke-width="1.4" opacity="0.9"/>
<rect x="278.2" y="220.0" width="13.8" height="1.5" fill="#00BFFF" opacity="0.9" rx="1"/>
<line x1="312.8" y1="220.0" x2="312.8" y2="220.0" stroke="#00BFFF" stroke-width="1.4" opacity="0.9"/>
<rect x="305.9" y="220.0" width="13.8" height="1.5" fill="#00BFFF" opacity="0.9" rx="1"/>
<line x1="340.5" y1="220.0" x2="340.5" y2="220.0" stroke="#00BFFF" stroke-width="1.4" opacity="0.9"/>
<rect x="333.6" y="220.0" width="13.8" height="1.5" fill="#00BFFF" opacity="0.9" rx="1"/>
<line x1="368.2" y1="220.0" x2="368.2" y2="220.0" stroke="#00BFFF" stroke-width="1.4" opacity="0.9"/>
<rect x="361.2" y="220.0" width="13.8" height="1.5" fill="#00BFFF" opacity="0.9" rx="1"/>
<line x1="395.8" y1="220.0" x2="395.8" y2="220.0" stroke="#00BFFF" stroke-width="1.4" opacity="0.9"/>
<rect x="388.9" y="220.0" width="13.8" height="1.5" fill="#00BFFF" opacity="0.9" rx="1"/>
<line x1="423.5" y1="220.0" x2="423.5" y2="220.0" stroke="#00BFFF" stroke-width="1.4" opacity="0.9"/>
<rect x="416.6" y="220.0" width="13.8" height="1.5" fill="#00BFFF" opacity="0.9" rx="1"/>
<line x1="451.2" y1="220.0" x2="451.2" y2="220.0" stroke="#00BFFF" stroke-width="1.4" opacity="0.9"/>
<rect x="444.2" y="220.0" width="13.8" height="1.5" fill="#00BFFF" opacity="0.9" rx="1"/>
<line x1="478.8" y1="220.0" x2="478.8" y2="220.0" stroke="#00BFFF" stroke-width="1.4" opacity="0.9"/>
<rect x="471.9" y="220.0" width="13.8" height="1.5" fill="#00BFFF" opacity="0.9" rx="1"/>
<line x1="506.5" y1="220.0" x2="506.5" y2="220.0" stroke="#00BFFF" stroke-width="1.4" opacity="0.9"/>
<rect x="499.6" y="220.0" width="13.8" height="1.5" fill="#00BFFF" opacity="0.9" rx="1"/>
<line x1="534.2" y1="220.0" x2="534.2" y2="220.0" stroke="#00BFFF" stroke-width="1.4" opacity="0.9"/>
<rect x="527.3" y="220.0" width="13.8" height="1.5" fill="#00BFFF" opacity="0.9" rx="1"/>
<line x1="561.8" y1="220.0" x2="561.8" y2="220.0" stroke="#00BFFF" stroke-width="1.4" opacity="0.9"/>
<rect x="554.9" y="220.0" width="13.8" height="1.5" fill="#00BFFF" opacity="0.9" rx="1"/>
<line x1="589.5" y1="220.0" x2="589.5" y2="220.0" stroke="#00BFFF" stroke-width="1.4" opacity="0.9"/>
<rect x="582.6" y="220.0" width="13.8" height="1.5" fill="#00BFFF" opacity="0.9" rx="1"/>
<line x1="617.2" y1="220.0" x2="617.2" y2="220.0" stroke="#00BFFF" stroke-width="1.4" opacity="0.9"/>
<rect x="610.3" y="220.0" width="13.8" height="1.5" fill="#00BFFF" opacity="0.9" rx="1"/>
<line x1="644.8" y1="220.0" x2="644.8" y2="220.0" stroke="#00BFFF" stroke-width="1.4" opacity="0.9"/>
<rect x="637.9" y="220.0" width="13.8" height="1.5" fill="#00BFFF" opacity="0.9" rx="1"/>
<line x1="672.5" y1="220.0" x2="672.5" y2="220.0" stroke="#00BFFF" stroke-width="1.4" opacity="0.9"/>
<rect x="665.6" y="220.0" width="13.8" height="1.5" fill="#00BFFF" opacity="0.9" rx="1"/>
<line x1="700.2" y1="196.2" x2="700.2" y2="220.0" stroke="#00BFFF" stroke-width="1.4" opacity="0.9"/>
<rect x="693.3" y="220.0" width="13.8" height="1.5" fill="#00BFFF" opacity="0.9" rx="1"/>
<line x1="727.8" y1="172.5" x2="727.8" y2="220.0" stroke="#73E5A6" stroke-width="1.4" opacity="0.9"/>
<rect x="720.9" y="196.2" width="13.8" height="23.8" fill="#73E5A6" opacity="0.9" rx="1"/>
<line x1="755.5" y1="30.0" x2="755.5" y2="196.2" stroke="#73E5A6" stroke-width="1.4" opacity="0.9"/>
<rect x="748.6" y="172.5" width="13.8" height="23.8" fill="#73E5A6" opacity="0.9" rx="1"/>
<line x1="783.2" y1="30.0" x2="783.2" y2="220.0" stroke="#73E5A6" stroke-width="1.4" opacity="0.9"/>
<rect x="776.3" y="30.0" width="13.8" height="142.5" fill="#73E5A6" opacity="0.9" rx="1"/>
<line x1="810.8" y1="30.0" x2="810.8" y2="220.0" stroke="#00BFFF" stroke-width="1.4" opacity="0.9"/>
<rect x="803.9" y="30.0" width="13.8" height="190.0" fill="#00BFFF" opacity="0.9" rx="1"/>
<line x1="838.5" y1="196.2" x2="838.5" y2="220.0" stroke="#73E5A6" stroke-width="1.4" opacity="0.9"/>
<rect x="831.6" y="196.2" width="13.8" height="23.8" fill="#73E5A6" opacity="0.9" rx="1"/>
<line x1="866.2" y1="196.2" x2="866.2" y2="220.0" stroke="#00BFFF" stroke-width="1.4" opacity="0.9"/>
<rect x="859.3" y="196.2" width="13.8" height="23.8" fill="#00BFFF" opacity="0.9" rx="1"/>
<text x="63.8" y="236" fill="#C9D1D9" font-size="9" text-anchor="middle" opacity="0.7">06-22</text>
<text x="202.2" y="236" fill="#C9D1D9" font-size="9" text-anchor="middle" opacity="0.7">06-27</text>
<text x="340.5" y="236" fill="#C9D1D9" font-size="9" text-anchor="middle" opacity="0.7">07-02</text>
<text x="478.8" y="236" fill="#C9D1D9" font-size="9" text-anchor="middle" opacity="0.7">07-07</text>
<text x="617.2" y="236" fill="#C9D1D9" font-size="9" text-anchor="middle" opacity="0.7">07-12</text>
<text x="755.5" y="236" fill="#C9D1D9" font-size="9" text-anchor="middle" opacity="0.7">07-17</text>
<text x="866.2" y="236" fill="#C9D1D9" font-size="9" text-anchor="middle" opacity="0.7">07-21</text>
<text x="880" y="20" fill="#73E5A6" font-size="12" text-anchor="end" font-weight="bold">12 commits · 4 up days</text>
</svg>